<?xml version="1.0" encoding="utf-8"?>
<!-- Generator: Adobe Illustrator 21.1.0, SVG Export Plug-In . SVG Version: 6.00 Build 0)  -->
<svg version="1.1" id="Layer_1" xmlns="http://www.w3.org/2000/svg" xmlns:xlink="http://www.w3.org/1999/xlink" x="0px" y="0px"
	 viewBox="0 0 1600 248" style="enable-background:new 0 0 1600 248;" xml:space="preserve">
<text transform="matrix(1 0 0 1 20.9224 -198.1309)" style="font-family:'Montserrat-Bold'; font-size:225.2131px;">UX Developer</text>
<g>
	<path d="M178.6,134.7c0,41.7-27.7,68-71.8,68c-44.4,0-72.7-26.4-72.7-68V43.2h40.1v91.4c0,21.4,13.7,34.5,32.9,34.5
		c18.9,0,31.8-13.1,31.8-34.5V43.2h39.9V134.7z"/>
	<path d="M355.4,200.9h-48l-34-50.2l-57,85.4h-46.6l79.3-115.8l-52.7-77H243l30.4,45.9L327.8,10h47.1l-76,108.4L355.4,200.9z"/>
	<path d="M492.7,43.2c49.5,0,83.8,32,83.8,78.8c0,46.6-34.7,78.8-85.4,78.8H425V43.2H492.7z M465,168.9h28.6
		c24.5,0,42.1-18.9,42.1-46.6c0-27.9-18.5-47.1-43.9-47.1H465V168.9z"/>
	<path d="M711.9,150.6h-85.4c3.8,14.4,14.2,22.5,28.6,22.5c10.6,0,20.9-4.3,29.1-12.4l20.5,20c-12.4,13.5-30.6,21.4-52.9,21.4
		c-39.6,0-64.4-24.8-64.4-61.7c0-37.6,25.7-62.4,63.3-62.4C693.4,78.1,714.6,106.3,711.9,150.6z M674.5,129.7
		c0-14.9-9.5-24.5-23.4-24.5c-13.5,0-22.7,9.9-25.2,24.5H674.5z"/>
	<path d="M758,200.9L712.3,79.5h40.1l26.1,85.8l26.4-85.8h38.7l-45.7,121.4H758z"/>
	<path d="M967.9,150.6h-85.4c3.8,14.4,14.2,22.5,28.6,22.5c10.6,0,20.9-4.3,29.1-12.4l20.5,20c-12.4,13.5-30.6,21.4-52.9,21.4
		c-39.6,0-64.4-24.8-64.4-61.7c0-37.6,25.7-62.4,63.3-62.4C949.5,78.1,970.6,106.3,967.9,150.6z M930.6,129.7
		c0-14.9-9.5-24.5-23.4-24.5c-13.5,0-22.7,9.9-25.2,24.5H930.6z"/>
	<path d="M990.2,200.9V33.8h39v167.1H990.2z"/>
	<path d="M1183.9,140.1c0,37.4-26.6,62.2-66.2,62.2c-39.9,0-66.4-24.8-66.4-62.2c0-37.4,26.6-61.9,66.4-61.9
		C1157.3,78.1,1183.9,102.7,1183.9,140.1z M1090.5,140.5c0,18.9,11,31.5,27.3,31.5c16,0,27-12.6,27-31.5c0-18.7-11-31.5-27-31.5
		C1101.5,109,1090.5,121.8,1090.5,140.5z"/>
	<path d="M1338.2,140.7c0,36.9-22.1,61.5-56.1,61.5c-15.8,0-28.6-6.3-37.2-17.6v59.9h-39V79.5h39v16c8.6-11,20.9-17.3,36.3-17.3
		C1315.4,78.1,1338.2,103.1,1338.2,140.7z M1299,139.6c0-18.5-11-31.5-27.3-31.5c-15.8,0-26.8,13.1-26.8,31.5
		c0,18.9,11,31.8,26.8,31.8C1288,171.4,1299,158.3,1299,139.6z"/>
	<path d="M1473.5,150.6h-85.4c3.8,14.4,14.2,22.5,28.6,22.5c10.6,0,20.9-4.3,29.1-12.4l20.5,20c-12.4,13.5-30.6,21.4-52.9,21.4
		c-39.6,0-64.4-24.8-64.4-61.7c0-37.6,25.7-62.4,63.3-62.4C1455.1,78.1,1476.2,106.3,1473.5,150.6z M1436.2,129.7
		c0-14.9-9.5-24.5-23.4-24.5c-13.5,0-22.7,9.9-25.2,24.5H1436.2z"/>
	<path d="M1533.7,100c8.3-14.2,22.1-22.1,39.4-22.3v35.1c-22.5-2-37.4,8.6-39.4,25.7v62.4h-39V79.5h39V100z"/>
</g>
</svg>
