<?xml version="1.0" encoding="utf-8"?>
<!-- Generator: Adobe Illustrator 21.1.0, SVG Export Plug-In . SVG Version: 6.00 Build 0)  -->
<svg version="1.1" id="Layer_1" xmlns="http://www.w3.org/2000/svg" xmlns:xlink="http://www.w3.org/1999/xlink" x="0px" y="0px"
	 viewBox="0 0 683.6 104.1" style="enable-background:new 0 0 683.6 104.1;" xml:space="preserve">
<style type="text/css">
	.st0{enable-background:new    ;}
	.st1{fill:none;stroke:#000000;stroke-width:6;stroke-miterlimit:10;}
</style>
<text transform="matrix(1 0 0 1 128.7775 -989.119)" style="font-family:'Montserrat-Bold'; font-size:225.2131px;">UX Developer</text>
<g>
	<path d="M212.4,637.4c0,41.7-27.7,68-71.8,68c-44.4,0-72.7-26.4-72.7-68v-91.5H108v91.4c0,21.4,13.7,34.5,32.9,34.5
		c18.9,0,31.8-13.1,31.8-34.5v-91.4h39.9v91.5H212.4z"/>
	<path d="M526.5,545.9c49.5,0,83.8,32,83.8,78.8c0,46.6-34.7,78.8-85.4,78.8h-66.1V545.9H526.5z M498.8,671.6h28.6
		c24.5,0,42.1-18.9,42.1-46.6c0-27.9-18.5-47.1-43.9-47.1h-26.8V671.6z"/>
	<path d="M745.7,653.3h-85.4c3.8,14.4,14.2,22.5,28.6,22.5c10.6,0,20.9-4.3,29.1-12.4l20.5,20c-12.4,13.5-30.6,21.4-52.9,21.4
		c-39.6,0-64.4-24.8-64.4-61.7c0-37.6,25.7-62.4,63.3-62.4C727.2,580.8,748.4,609,745.7,653.3z M708.3,632.4
		c0-14.9-9.5-24.5-23.4-24.5c-13.5,0-22.7,9.9-25.2,24.5H708.3z"/>
	<path d="M791.8,703.6l-45.7-121.4h40.1l26.1,85.8l26.4-85.8h38.7l-45.7,121.4H791.8z"/>
	<path d="M1001.7,653.3h-85.4c3.8,14.4,14.2,22.5,28.6,22.5c10.6,0,20.9-4.3,29.1-12.4l20.5,20c-12.4,13.5-30.6,21.4-52.9,21.4
		c-39.6,0-64.4-24.8-64.4-61.7c0-37.6,25.7-62.4,63.3-62.4C983.3,580.8,1004.4,609,1001.7,653.3z M964.4,632.4
		c0-14.9-9.5-24.5-23.4-24.5c-13.5,0-22.7,9.9-25.2,24.5H964.4z"/>
	<path d="M1024,703.6V536.5h39v167.1H1024L1024,703.6z"/>
	<path d="M1217.7,642.8c0,37.4-26.6,62.2-66.2,62.2c-39.9,0-66.4-24.8-66.4-62.2s26.6-61.9,66.4-61.9
		C1191.1,580.8,1217.7,605.4,1217.7,642.8z M1124.3,643.2c0,18.9,11,31.5,27.3,31.5c16,0,27-12.6,27-31.5c0-18.7-11-31.5-27-31.5
		C1135.3,611.7,1124.3,624.5,1124.3,643.2z"/>
	<path d="M1372,643.4c0,36.9-22.1,61.5-56.1,61.5c-15.8,0-28.6-6.3-37.2-17.6v59.9h-39v-165h39v16c8.6-11,20.9-17.3,36.3-17.3
		C1349.2,580.8,1372,605.8,1372,643.4z M1332.8,642.3c0-18.5-11-31.5-27.3-31.5c-15.8,0-26.8,13.1-26.8,31.5
		c0,18.9,11,31.8,26.8,31.8C1321.8,674.1,1332.8,661,1332.8,642.3z"/>
	<path d="M1507.3,653.3h-85.4c3.8,14.4,14.2,22.5,28.6,22.5c10.6,0,20.9-4.3,29.1-12.4l20.5,20c-12.4,13.5-30.6,21.4-52.9,21.4
		c-39.6,0-64.4-24.8-64.4-61.7c0-37.6,25.7-62.4,63.3-62.4C1488.9,580.8,1510,609,1507.3,653.3z M1470,632.4
		c0-14.9-9.5-24.5-23.4-24.5c-13.5,0-22.7,9.9-25.2,24.5H1470z"/>
	<path d="M1567.5,602.7c8.3-14.2,22.1-22.1,39.4-22.3v35.1c-22.5-2-37.4,8.6-39.4,25.7v62.4h-39V582.2h39V602.7z"/>
	<g id="x-layer">
		<path d="M389.2,703.6h-48l-34-50.2l-57,85.4h-46.6L282.9,623l-52.7-77h46.6l30.4,45.9l54.4-79.2h47.1l-76,108.4L389.2,703.6z"/>
	</g>
</g>
<g>
	<g>
		<path d="M75.6,489.1v-61.8h29.3c7.4,0,13.2,1.7,17.4,5.1s6.3,8.5,6.3,15.3c0,4.6-1.3,8.6-4,12c-2.7,3.4-6.2,5.7-10.5,7l18,19.5
			v2.9h-16.3l-18.8-21.5h-6.2v21.5H75.6z M90.9,455.8h13.8c2.5,0,4.5-0.7,6-2.1c1.5-1.4,2.3-3.2,2.3-5.5c0-2.3-0.8-4.2-2.3-5.6
			c-1.5-1.4-3.5-2.1-6-2.1H90.9V455.8z"/>
		<path d="M136.7,465.4c0-4.8,1.1-9,3.3-12.9s5.2-6.8,9.1-9c3.9-2.2,8.2-3.3,13.1-3.3c7.4,0,13.5,2.4,18.4,7.1
			c4.9,4.8,7.3,10.8,7.3,18c0,7.2-2.4,13.1-7.3,17.8c-4.9,4.7-11,7.1-18.4,7.1c-4.8,0-9.2-1.1-13.1-3.2c-3.9-2.1-6.9-5.1-9.1-8.9
			C137.8,474.4,136.7,470.1,136.7,465.4z M151.4,465.4c0,3.1,1,5.6,3,7.7c2,2.1,4.6,3.1,7.8,3.1c3.3,0,5.9-1,8-3.1
			c2-2.1,3.1-4.7,3.1-7.7c0-3.1-1-5.8-3.1-7.9c-2-2.1-4.7-3.2-8-3.2c-3.2,0-5.8,1.1-7.8,3.2C152.4,459.6,151.4,462.3,151.4,465.4z"
			/>
		<path d="M198.3,489.1v-64.5h15.3v21.6c3.6-3.6,8.1-5.5,13.5-5.5c6.5,0,11.8,2.3,15.9,6.9c4.1,4.6,6.1,10.5,6.1,17.7
			s-2,13.1-6.1,17.8c-4.1,4.6-9.4,6.9-15.9,6.9c-5.6,0-10.1-1.9-13.5-5.7v4.8H198.3z M213.6,473.3c1,0.9,2.3,1.8,4,2.4
			c1.7,0.7,3.4,1,5.1,1c3.3,0,5.9-1,7.9-3.1c2-2.1,2.9-4.8,2.9-8.3c0-3.4-1-6.2-2.9-8.2c-2-2-4.6-3.1-7.9-3.1c-1.7,0-3.3,0.3-5,1
			c-1.6,0.7-3,1.5-4.2,2.6V473.3z"/>
		<path d="M256.8,465.5c0-7.2,2.3-13.3,7-18c4.7-4.8,10.7-7.2,18.2-7.2c3.5,0,6.7,0.5,9.4,1.6c2.8,1,5,2.5,6.7,4.3
			c1.7,1.8,3,3.9,3.9,6.3c0.9,2.4,1.3,4.9,1.3,7.7c0,1.5-0.1,3.2-0.3,5c-0.2,1.8-0.4,3.2-0.7,4H272c0.4,2.9,1.7,5.2,3.7,6.9
			c2,1.7,4.7,2.5,8.1,2.5c2.4,0,4.8-0.5,7.3-1.4c2.5-0.9,4.6-2,6.3-3.3L303,484c-2.5,2-5.5,3.5-9,4.6c-3.5,1.1-7.2,1.7-11.2,1.7
			c-4.3,0-8.2-0.6-11.6-1.9s-6.1-3-8.2-5.3c-2.1-2.3-3.7-4.9-4.7-7.9C257.3,472.3,256.8,469,256.8,465.5z M272.2,459.5h17.9
			c0.1-0.2,0.1-0.5,0.1-1c0-1.9-0.7-3.5-2.1-4.7c-1.4-1.2-3.5-1.8-6.2-1.8c-2.7,0-4.9,0.7-6.6,2.1
			C273.7,455.6,272.6,457.4,272.2,459.5z"/>
		<path d="M314.1,489.1v-47.5h15.3v8.2c3-6,7.3-9.1,12.9-9.1c3.4,0,6.6,0.9,9.4,2.7l-4.6,13.1c-2.5-1.2-5.1-1.8-7.8-1.8
			c-2.5,0-4.5,0.7-6.3,2.2c-1.7,1.4-2.9,3.3-3.6,5.6v26.6H314.1z"/>
		<path d="M355.1,453.4v-11.8h8.6l1.8-12.1h13v12.1h16.5v11.8h-16.5v15.9c0,2.6,0.5,4.5,1.4,5.7c0.9,1.1,2.3,1.7,4.2,1.7
			c1.5,0,3.1-0.3,4.7-1c1.6-0.6,3-1.4,4.2-2.3l4.7,11.7c-5.1,3.2-11.3,4.8-18.4,4.8c-5,0-8.9-1.5-11.8-4.5c-2.8-3-4.2-7.3-4.2-12.9
			v-19.2H355.1z"/>
		<path d="M418.9,427.3h16.7l16.3,47.2l16.8-47.2h16.7l-23.8,61.8h-19.3L418.9,427.3z"/>
		<path d="M485.4,475.9c0-5.3,1.9-9.3,5.8-12.2c3.9-2.9,9.1-4.3,15.8-4.3c2.4,0,4.8,0.2,7,0.6c0-2.1-0.6-3.7-1.8-4.6
			c-1.2-0.9-3-1.4-5.5-1.4c-2.3,0-4.9,0.3-7.7,0.8c-2.8,0.5-5.2,1.1-7.1,1.9l-2.5-12.5c2.5-1,5.5-1.8,8.9-2.5c3.4-0.7,6.7-1,9.9-1
			c13.9,0,20.8,6.5,20.8,19.5v28.9H514v-4.4c-3.8,3.5-8.3,5.3-13.5,5.3c-4.8,0-8.5-1.3-11.1-3.8
			C486.7,483.7,485.4,480.2,485.4,475.9z M500.3,473.7c0,3,2,4.5,6,4.5c2.6,0,5.2-0.8,7.7-2.5v-6.7c-1.3-0.3-2.7-0.4-4.1-0.4
			c-2.8,0-5.2,0.4-6.9,1.3C501.2,470.7,500.3,472,500.3,473.7z"/>
		<path d="M541.7,489.1v-47.5H557v8.2c3-6,7.3-9.1,12.9-9.1c3.4,0,6.6,0.9,9.4,2.7l-4.6,13.1c-2.5-1.2-5.1-1.8-7.8-1.8
			c-2.5,0-4.5,0.7-6.3,2.2c-1.7,1.4-2.9,3.3-3.6,5.6v26.6H541.7z"/>
		<path d="M583.2,463.7c0-4.2,0.9-8,2.7-11.5c1.8-3.5,4.4-6.2,7.8-8.3c3.4-2.1,7.1-3.1,11.4-3.1c5.6,0,10.1,1.9,13.6,5.6v-4.8h15.3
			v41c0,3.2-0.4,6.1-1.3,8.8c-0.9,2.7-2.1,5-3.6,6.9c-1.5,1.9-3.4,3.5-5.5,4.9c-2.1,1.3-4.4,2.3-6.8,2.9c-2.4,0.6-5,1-7.7,1
			c-1.2,0-2.4-0.1-3.6-0.2c-1.2-0.1-2.3-0.2-3.2-0.3c-0.9-0.1-1.9-0.3-2.9-0.6c-1-0.3-1.9-0.5-2.5-0.7c-0.6-0.2-1.4-0.4-2.3-0.8
			c-0.9-0.3-1.5-0.6-1.9-0.7c-0.4-0.1-0.9-0.4-1.7-0.7c-0.8-0.3-1.2-0.5-1.4-0.6l3.2-11.8c5.3,3,10.5,4.5,15.3,4.5
			c3.1,0,5.7-0.7,7.6-2.2c2-1.5,2.9-3.9,2.9-7.2v-4.6c-3.7,3.5-8.2,5.2-13.6,5.2c-4.2,0-8-1-11.4-3.1c-3.4-2.1-5.9-4.8-7.8-8.2
			C584.1,471.6,583.2,467.8,583.2,463.7z M598.7,463.7c0,2.9,1,5.2,2.9,6.9c2,1.7,4.6,2.6,7.8,2.6c3.5,0,6.5-1.2,9.1-3.5v-12.1
			c-1-1-2.4-1.8-4.1-2.5c-1.7-0.7-3.4-1-5-1c-3.3,0-5.9,0.9-7.9,2.6C599.6,458.4,598.7,460.7,598.7,463.7z"/>
		<path d="M643.8,475.9c0-5.3,1.9-9.3,5.8-12.2c3.9-2.9,9.1-4.3,15.8-4.3c2.4,0,4.8,0.2,7,0.6c0-2.1-0.6-3.7-1.8-4.6
			c-1.2-0.9-3-1.4-5.5-1.4c-2.3,0-4.9,0.3-7.7,0.8c-2.8,0.5-5.2,1.1-7.1,1.9l-2.5-12.5c2.5-1,5.5-1.8,8.9-2.5c3.4-0.7,6.7-1,9.9-1
			c13.9,0,20.8,6.5,20.8,19.5v28.9h-14.9v-4.4c-3.8,3.5-8.3,5.3-13.5,5.3c-4.8,0-8.5-1.3-11.1-3.8
			C645.1,483.7,643.8,480.2,643.8,475.9z M658.7,473.7c0,3,2,4.5,6,4.5c2.6,0,5.2-0.8,7.7-2.5v-6.7c-1.3-0.3-2.7-0.4-4.1-0.4
			c-2.8,0-5.2,0.4-6.9,1.3C659.6,470.7,658.7,472,658.7,473.7z"/>
		<path d="M697.9,485.8l3-11.9c5.6,2.9,10.5,4.3,14.7,4.3c4.1,0,6.2-1,6.2-2.9c0-1.6-1.6-2.7-4.7-3.4l-6.7-1.8
			c-4.3-1.1-7.4-2.7-9.3-4.9c-1.9-2.2-2.9-5-2.9-8.6c0-4.8,1.8-8.6,5.4-11.5c3.6-2.9,8.6-4.3,15.1-4.3c3,0,6.1,0.4,9.4,1.1
			c3.3,0.7,5.9,1.5,7.8,2.5l-3.9,11.9c-4.7-2.4-9.2-3.6-13.7-3.6c-3.4,0-5.1,1-5.1,3.1c0,0.9,0.3,1.5,0.8,1.8c0.5,0.4,1.5,0.7,3,1.1
			l7.4,2c4.6,1.2,7.9,3,9.8,5.3c1.9,2.3,2.9,5.2,2.9,8.6c0,4.7-1.9,8.4-5.6,11.3c-3.7,2.9-8.7,4.3-14.9,4.3
			C709.6,490,703.4,488.6,697.9,485.8z"/>
	</g>
</g>
<g>
	<g>
		<path d="M13.4,78.9V17.1h29.3c7.4,0,13.2,1.7,17.4,5.1s6.3,8.5,6.3,15.3c0,4.6-1.3,8.6-4,12c-2.7,3.4-6.2,5.7-10.5,7l18,19.5v2.9
			H53.6L34.8,57.4h-6.2v21.5H13.4z M28.6,45.6h13.8c2.5,0,4.5-0.7,6-2.1c1.5-1.4,2.3-3.2,2.3-5.5c0-2.3-0.8-4.2-2.3-5.6
			c-1.5-1.4-3.5-2.1-6-2.1H28.6V45.6z"/>
		<path d="M74.5,55.2c0-4.8,1.1-9,3.3-12.9s5.2-6.8,9.1-9c3.9-2.2,8.2-3.3,13.1-3.3c7.4,0,13.5,2.4,18.4,7.1
			c4.9,4.8,7.3,10.8,7.3,18c0,7.2-2.4,13.1-7.3,17.8c-4.9,4.7-11,7.1-18.4,7.1c-4.8,0-9.2-1.1-13.1-3.2c-3.9-2.1-6.9-5.1-9.1-8.9
			C75.6,64.2,74.5,60,74.5,55.2z M89.1,55.2c0,3.1,1,5.6,3,7.7c2,2.1,4.6,3.1,7.8,3.1c3.3,0,5.9-1,8-3.1c2-2.1,3.1-4.7,3.1-7.7
			c0-3.1-1-5.8-3.1-7.9c-2-2.1-4.7-3.2-8-3.2c-3.2,0-5.8,1.1-7.8,3.2C90.1,49.5,89.1,52.1,89.1,55.2z"/>
		<path d="M136.1,78.9V14.4h15.3V36c3.6-3.6,8.1-5.5,13.5-5.5c6.5,0,11.8,2.3,15.9,6.9c4.1,4.6,6.1,10.5,6.1,17.7s-2,13.1-6.1,17.8
			c-4.1,4.6-9.4,6.9-15.9,6.9c-5.6,0-10.1-1.9-13.5-5.7v4.8H136.1z M151.3,63.1c1,0.9,2.3,1.8,4,2.4c1.7,0.7,3.4,1,5.1,1
			c3.3,0,5.9-1,7.9-3.1c2-2.1,2.9-4.8,2.9-8.3c0-3.4-1-6.2-2.9-8.2c-2-2-4.6-3.1-7.9-3.1c-1.7,0-3.3,0.3-5,1c-1.6,0.7-3,1.5-4.2,2.6
			V63.1z"/>
		<path d="M194.5,55.3c0-7.2,2.3-13.3,7-18c4.7-4.8,10.7-7.2,18.2-7.2c3.5,0,6.7,0.5,9.4,1.6c2.8,1,5,2.5,6.7,4.3
			c1.7,1.8,3,3.9,3.9,6.3c0.9,2.4,1.3,4.9,1.3,7.7c0,1.5-0.1,3.2-0.3,5c-0.2,1.8-0.4,3.2-0.7,4h-30.4c0.4,2.9,1.7,5.2,3.7,6.9
			c2,1.7,4.7,2.5,8.1,2.5c2.4,0,4.8-0.5,7.3-1.4c2.5-0.9,4.6-2,6.3-3.3l5.6,10.2c-2.5,2-5.5,3.5-9,4.6c-3.5,1.1-7.2,1.7-11.2,1.7
			c-4.3,0-8.2-0.6-11.6-1.9s-6.1-3-8.2-5.3c-2.1-2.3-3.7-4.9-4.7-7.9C195.1,62.1,194.5,58.9,194.5,55.3z M210,49.3h17.9
			c0.1-0.2,0.1-0.5,0.1-1c0-1.9-0.7-3.5-2.1-4.7c-1.4-1.2-3.5-1.8-6.2-1.8c-2.7,0-4.9,0.7-6.6,2.1C211.4,45.4,210.3,47.2,210,49.3z"
			/>
		<path d="M251.8,78.9V31.4h15.3v8.2c3-6,7.3-9.1,12.9-9.1c3.4,0,6.6,0.9,9.4,2.7l-4.6,13.1c-2.5-1.2-5.1-1.8-7.8-1.8
			c-2.5,0-4.5,0.7-6.3,2.2c-1.7,1.4-2.9,3.3-3.6,5.6v26.6H251.8z"/>
		<path d="M292.8,43.2V31.4h8.6l1.8-12.1h13v12.1h16.5v11.8h-16.5v15.9c0,2.6,0.5,4.5,1.4,5.7c0.9,1.1,2.3,1.7,4.2,1.7
			c1.5,0,3.1-0.3,4.7-1c1.6-0.6,3-1.4,4.2-2.3l4.7,11.7c-5.1,3.2-11.3,4.8-18.4,4.8c-5,0-8.9-1.5-11.8-4.5c-2.8-3-4.2-7.3-4.2-12.9
			V43.2H292.8z"/>
		<path d="M356.6,17.1h16.7l16.3,47.2l16.8-47.2h16.7l-23.8,61.8H380L356.6,17.1z"/>
		<path d="M423.1,65.7c0-5.3,1.9-9.3,5.8-12.2c3.9-2.9,9.1-4.3,15.8-4.3c2.4,0,4.8,0.2,7,0.6c0-2.1-0.6-3.7-1.8-4.6
			c-1.2-0.9-3-1.4-5.5-1.4c-2.3,0-4.9,0.3-7.7,0.8c-2.8,0.5-5.2,1.1-7.1,1.9L427,34c2.5-1,5.5-1.8,8.9-2.5c3.4-0.7,6.7-1,9.9-1
			c13.9,0,20.8,6.5,20.8,19.5v28.9h-14.9v-4.4c-3.8,3.5-8.3,5.3-13.5,5.3c-4.8,0-8.5-1.3-11.1-3.8C424.4,73.5,423.1,70.1,423.1,65.7
			z M438,63.5c0,3,2,4.5,6,4.5c2.6,0,5.2-0.8,7.7-2.5v-6.7c-1.3-0.3-2.7-0.4-4.1-0.4c-2.8,0-5.2,0.4-6.9,1.3
			C438.9,60.6,438,61.8,438,63.5z"/>
		<path d="M479.4,78.9V31.4h15.3v8.2c3-6,7.3-9.1,12.9-9.1c3.4,0,6.6,0.9,9.4,2.7l-4.6,13.1c-2.5-1.2-5.1-1.8-7.8-1.8
			c-2.5,0-4.5,0.7-6.3,2.2c-1.7,1.4-2.9,3.3-3.6,5.6v26.6H479.4z"/>
		<path d="M520.9,53.5c0-4.2,0.9-8,2.7-11.5c1.8-3.5,4.4-6.2,7.8-8.3c3.4-2.1,7.1-3.1,11.4-3.1c5.6,0,10.1,1.9,13.6,5.6v-4.8h15.3
			v41c0,3.2-0.4,6.1-1.3,8.8c-0.9,2.7-2.1,5-3.6,6.9c-1.5,1.9-3.4,3.5-5.5,4.9c-2.1,1.3-4.4,2.3-6.8,2.9c-2.4,0.6-5,1-7.7,1
			c-1.2,0-2.4-0.1-3.6-0.2c-1.2-0.1-2.3-0.2-3.2-0.3c-0.9-0.1-1.9-0.3-2.9-0.6c-1-0.3-1.9-0.5-2.5-0.7c-0.6-0.2-1.4-0.4-2.3-0.8
			c-0.9-0.3-1.5-0.6-1.9-0.7c-0.4-0.1-0.9-0.4-1.7-0.7c-0.8-0.3-1.2-0.5-1.4-0.6l3.2-11.8c5.3,3,10.5,4.5,15.3,4.5
			c3.1,0,5.7-0.7,7.6-2.2c2-1.5,2.9-3.9,2.9-7.2V71c-3.7,3.5-8.2,5.2-13.6,5.2c-4.2,0-8-1-11.4-3.1c-3.4-2.1-5.9-4.8-7.8-8.2
			C521.8,61.4,520.9,57.6,520.9,53.5z M536.4,53.5c0,2.9,1,5.2,2.9,6.9c2,1.7,4.6,2.6,7.8,2.6c3.5,0,6.5-1.2,9.1-3.5V47.4
			c-1-1-2.4-1.8-4.1-2.5c-1.7-0.7-3.4-1-5-1c-3.3,0-5.9,0.9-7.9,2.6C537.4,48.2,536.4,50.5,536.4,53.5z"/>
		<path d="M581.6,65.7c0-5.3,1.9-9.3,5.8-12.2c3.9-2.9,9.1-4.3,15.8-4.3c2.4,0,4.8,0.2,7,0.6c0-2.1-0.6-3.7-1.8-4.6
			c-1.2-0.9-3-1.4-5.5-1.4c-2.3,0-4.9,0.3-7.7,0.8c-2.8,0.5-5.2,1.1-7.1,1.9L585.5,34c2.5-1,5.5-1.8,8.9-2.5c3.4-0.7,6.7-1,9.9-1
			c13.9,0,20.8,6.5,20.8,19.5v28.9h-14.9v-4.4c-3.8,3.5-8.3,5.3-13.5,5.3c-4.8,0-8.5-1.3-11.1-3.8C582.9,73.5,581.6,70.1,581.6,65.7
			z M596.5,63.5c0,3,2,4.5,6,4.5c2.6,0,5.2-0.8,7.7-2.5v-6.7c-1.3-0.3-2.7-0.4-4.1-0.4c-2.8,0-5.2,0.4-6.9,1.3
			C597.4,60.6,596.5,61.8,596.5,63.5z"/>
		<path d="M635.7,75.6l3-11.9c5.6,2.9,10.5,4.3,14.7,4.3c4.1,0,6.2-1,6.2-2.9c0-1.6-1.6-2.7-4.7-3.4l-6.7-1.8
			c-4.3-1.1-7.4-2.7-9.3-4.9c-1.9-2.2-2.9-5-2.9-8.6c0-4.8,1.8-8.6,5.4-11.5c3.6-2.9,8.6-4.3,15.1-4.3c3,0,6.1,0.4,9.4,1.1
			c3.3,0.7,5.9,1.5,7.8,2.5l-3.9,11.9c-4.7-2.4-9.2-3.6-13.7-3.6c-3.4,0-5.1,1-5.1,3.1c0,0.9,0.3,1.5,0.8,1.8c0.5,0.4,1.5,0.7,3,1.1
			l7.4,2c4.6,1.2,7.9,3,9.8,5.3c1.9,2.3,2.9,5.2,2.9,8.6c0,4.7-1.9,8.4-5.6,11.3c-3.7,2.9-8.7,4.3-14.9,4.3
			C647.3,79.8,641.1,78.4,635.7,75.6z"/>
	</g>
</g>
<g>
	<g>
		<path d="M67.8,853.5v-61.8h21.7c4.6,0,8.8,0.7,12.7,2.1c3.9,1.4,7.2,3.3,10.1,5.9c2.9,2.6,5.1,5.8,6.7,9.8
			c1.6,3.9,2.4,8.4,2.4,13.3c0,4.9-0.8,9.3-2.4,13.2c-1.6,3.9-3.8,7.1-6.7,9.7c-2.9,2.5-6.2,4.5-10.1,5.9c-3.9,1.4-8.1,2-12.7,2
			H67.8z M69.6,851.7h19.9c4.3,0,8.4-0.6,12-1.9c3.7-1.3,6.8-3.1,9.5-5.5c2.7-2.4,4.8-5.4,6.3-9.1c1.5-3.7,2.3-7.8,2.3-12.5
			c0-4.7-0.8-8.9-2.3-12.6c-1.5-3.7-3.6-6.8-6.3-9.2c-2.7-2.4-5.9-4.2-9.5-5.5c-3.6-1.3-7.6-1.9-12-2H69.6V851.7z"/>
		<path d="M134.8,829.9c0-3.4,0.6-6.6,1.7-9.7c1.1-3,2.7-5.7,4.8-8c2.1-2.3,4.6-4.1,7.7-5.5c3.1-1.3,6.5-2,10.2-2
			c3.5,0,6.6,0.5,9.3,1.6c2.7,1,4.9,2.5,6.5,4.3c1.6,1.8,2.9,3.9,3.7,6.3c0.8,2.4,1.2,4.9,1.2,7.6c0,2.4-0.2,4.5-0.7,6.3h-42.8
			c0.1,3.1,0.6,6,1.5,8.6c0.9,2.6,2.3,5,4.2,7.1c1.8,2.1,4.3,3.7,7.3,4.9c3,1.2,6.5,1.8,10.5,1.8c6.5,0,12.4-2.1,17.9-6.4l1.2,1.6
			c-5.4,4.3-11.8,6.5-19.1,6.5c-4.3,0-8.1-0.7-11.4-2c-3.3-1.3-6-3.1-7.9-5.5c-2-2.3-3.4-4.9-4.4-7.9
			C135.2,836.5,134.8,833.3,134.8,829.9z M136.4,828.9h41.3c0.2-1.8,0.4-3.3,0.4-4.4c0-2.4-0.4-4.7-1.1-6.8c-0.7-2.1-1.8-4-3.3-5.7
			c-1.5-1.7-3.5-3-5.9-4s-5.3-1.5-8.5-1.5c-4.5,0-8.5,1-12,3.1c-3.5,2.1-6.1,4.8-7.9,8.2C137.5,821.1,136.5,824.9,136.4,828.9z"/>
		<path d="M193.7,850.3l0.6-1.9c5.1,2.8,10.6,4.2,16.5,4.2c5,0,9-1.1,12-3.4c3-2.3,4.5-5,4.5-8.3c0-2.6-1-4.7-2.9-6.1
			c-2-1.5-5-2.7-9.1-3.6l-8.3-1.9c-4.8-1-8.2-2.3-10.2-3.8c-2.1-1.6-3.1-3.9-3.1-7.1c0-4.1,1.5-7.3,4.6-9.7c3-2.4,7.4-3.6,12.9-3.6
			c2.7,0,5.7,0.4,8.7,1.1c3.1,0.7,5.5,1.5,7.3,2.5l-0.6,1.8c-1.9-0.9-4.3-1.8-7.1-2.5c-2.8-0.7-5.6-1.1-8.3-1.1
			c-5.1,0-8.9,1-11.6,3.1c-2.7,2-4.1,4.8-4.1,8.4c0,2.6,0.9,4.6,2.7,5.8c1.8,1.3,4.9,2.4,9.4,3.4l8,1.9c4.6,1,7.9,2.4,10.2,4.1
			c2.2,1.7,3.3,4.1,3.3,7.1c0,3.9-1.7,7.1-5,9.7c-3.3,2.6-7.7,3.8-13.3,3.8C204.6,854.4,198.9,853,193.7,850.3z"/>
		<path d="M244,792.4c0-1.6,0.7-2.4,2-2.4c1.2,0,1.8,0.8,1.8,2.4c0,1.6-0.6,2.4-1.8,2.4C244.7,794.7,244,793.9,244,792.4z
			 M245,853.5V806h1.8v47.5H245z"/>
		<path d="M263.5,828.1c0-3.1,0.6-6.1,1.7-8.9s2.7-5.2,4.7-7.3c2-2.1,4.5-3.7,7.5-4.9c3-1.2,6.3-1.8,9.8-1.8c3.4,0,6.6,0.7,9.6,2.1
			c3,1.4,5.6,3.2,7.7,5.3V806h1.8v44.4c0,3.3-0.5,6.3-1.6,9s-2.5,4.9-4.3,6.7c-1.8,1.7-3.9,3.1-6.3,4.1c-2.4,1-4.9,1.4-7.6,1.4
			c-1.1,0-2.2-0.1-3.2-0.2c-1.1-0.1-2-0.3-2.8-0.4c-0.8-0.1-1.7-0.4-2.6-0.7s-1.6-0.6-2.2-0.8c-0.5-0.2-1.2-0.5-2-0.9
			c-0.8-0.4-1.3-0.7-1.6-0.8c-0.3-0.1-0.7-0.4-1.4-0.9c-0.7-0.4-1-0.7-1.1-0.7l0.7-1.9c1,0.7,1.9,1.2,2.7,1.7c0.8,0.5,1.9,1,3.3,1.7
			c1.4,0.7,3,1.2,4.7,1.5c1.7,0.4,3.5,0.5,5.4,0.5c5,0,9.2-1.7,12.7-5.2c3.5-3.5,5.2-8.1,5.2-14v-7c-2.1,2.1-4.7,3.8-7.7,5.2
			c-3,1.4-6.2,2.1-9.6,2.1c-3.5,0-6.8-0.6-9.8-1.8c-3-1.2-5.5-2.8-7.5-4.9c-2-2.1-3.6-4.5-4.7-7.2S263.5,831.2,263.5,828.1z
			 M265.3,828.1c0,2.8,0.5,5.5,1.6,8.1c1,2.5,2.5,4.8,4.4,6.7c1.9,1.9,4.2,3.4,7,4.5c2.8,1.1,5.8,1.7,9,1.7c3.5,0,6.8-0.8,9.9-2.3
			c3.1-1.5,5.6-3.4,7.5-5.5V815c-1.9-2.2-4.4-4.1-7.5-5.7s-6.3-2.4-9.9-2.4c-6.5,0-11.8,2-15.9,6.1
			C267.3,817.2,265.3,822.2,265.3,828.1z"/>
		<path d="M326.2,853.5V806h1.8v10.9c1.7-3.7,4.3-6.6,7.7-8.7c3.4-2.1,7.4-3.1,12-3.1c6.2,0,11,1.9,14.4,5.8c3.4,3.9,5,9,5,15.2
			v27.3h-1.8v-27.3c0-5.6-1.5-10.3-4.5-13.8c-3-3.6-7.4-5.4-13.1-5.4c-5.1,0-9.4,1.4-12.9,4.1c-3.5,2.7-5.8,6.2-6.9,10.5v32H326.2z"
			/>
		<path d="M405,838.7c0-1.8,0.4-3.6,1.1-5.2c0.7-1.6,1.6-3,2.7-4.2c1.1-1.2,2.4-2.3,3.9-3.3c1.6-1.1,3-1.9,4.3-2.5
			c1.3-0.6,2.7-1.3,4.3-1.9l-0.7-0.7c-3.1-3-5.2-5.1-6.3-6.4c-2.7-3.3-4-6.5-4-9.5c0-4.3,1.5-7.8,4.5-10.3c3-2.5,7-3.8,12.1-3.8
			c4.7,0,8.7,1.3,11.9,4c3.2,2.6,4.8,5.9,4.8,9.8c0,6.7-3.7,11.5-11,14.5l-8,3.3l20.4,19.6c4.7-6,7.8-13.4,9.3-22.3l2,0.4
			c-1.9,9.6-5.2,17.3-9.9,23.3l10.3,9.8v0.4h-2.3l-9.1-8.7c-5.6,6.4-12.3,9.5-20.2,9.5c-6.2,0-11.1-1.4-14.7-4.2
			C406.8,847.3,405,843.5,405,838.7z M406.8,838.8c0,4.2,1.6,7.5,4.9,10c3.3,2.5,7.7,3.7,13.4,3.7c7.2,0,13.4-3,18.7-9l-21-20.4
			c-1.7,0.7-3.2,1.3-4.4,1.9c-1.2,0.6-2.6,1.3-4.2,2.3c-1.6,1-2.9,2-3.9,3c-1,1-1.8,2.3-2.5,3.7S406.8,837.1,406.8,838.8z
			 M412.1,804.8c0,1.3,0.3,2.6,0.9,4s1.4,2.7,2.5,4.1c1.1,1.3,2.1,2.5,3,3.4c0.9,0.9,1.9,1.9,3.2,3.1c0.3,0.3,0.5,0.5,0.7,0.6
			l0.9,0.9l8.6-3.4c6.7-2.6,10-6.9,10-12.9c0-3.3-1.5-6.2-4.4-8.5c-2.9-2.3-6.4-3.5-10.5-3.5c-4.7,0-8.4,1.1-11,3.3
			S412.1,801.1,412.1,804.8z"/>
		<path d="M493.9,853.5v-61.8h1.8l30,36.6l29.9-36.6h1.8v61.8h-1.8v-58.7l-29.5,35.9h-0.9l-29.5-35.9v58.7H493.9z"/>
		<path d="M573.9,839.8c0-2.4,0.4-4.5,1.2-6.4c0.8-1.9,1.9-3.5,3.4-4.8c1.4-1.3,3.2-2.4,5.2-3.2c2-0.9,4.2-1.5,6.6-1.9
			c2.4-0.4,4.9-0.6,7.7-0.6c4.1,0,7.9,0.5,11.4,1.6v-2.8c0-4.8-1.3-8.4-3.9-10.9c-2.6-2.5-6.4-3.8-11.4-3.8
			c-5.5,0-10.4,1.1-14.8,3.4l-0.5-1.8c2-1,4.5-1.9,7.3-2.5c2.9-0.6,5.6-0.9,8.1-0.9c5.4,0,9.6,1.4,12.6,4.3c3,2.9,4.4,6.9,4.4,12.3
			v31.8h-1.8v-6.2c-4.9,4.7-10.9,7.1-18,7.1c-5.4,0-9.6-1.3-12.8-3.9C575.5,847.8,573.9,844.3,573.9,839.8z M575.8,839.8
			c0,3.9,1.4,7.1,4.2,9.4c2.8,2.3,6.6,3.5,11.5,3.5c4,0,7.4-0.7,10.2-2.2c2.9-1.4,5.4-3.3,7.8-5.5v-18.7c-3.1-1-6.9-1.5-11.4-1.5
			c-3.3,0-6.2,0.3-8.8,0.8c-2.6,0.5-5,1.4-7,2.5c-2.1,1.2-3.7,2.7-4.8,4.7C576.3,834.8,575.8,837.1,575.8,839.8z"/>
		<path d="M630.6,853.5V806h1.8v11.3c3.5-8.1,8.8-12.1,15.9-12.1c2.2,0,4,0.3,5.5,1c1.5,0.7,3,1.6,4.5,2.9l-1.2,1.5
			c-2.6-2.4-5.6-3.6-8.8-3.6c-3.8,0-7,1.3-9.7,4c-2.7,2.7-4.8,6.1-6.2,10.4v32.2H630.6z"/>
		<path d="M671,853.5V789h1.8v38.5l29.3-21.5h2.4v0.3l-29.8,21.9l31.4,25.1v0.3h-2.7l-30.6-24.8v24.8H671z"/>
		<path d="M713.2,829.9c0-3.4,0.6-6.6,1.7-9.7c1.1-3,2.7-5.7,4.8-8c2.1-2.3,4.6-4.1,7.7-5.5c3.1-1.3,6.5-2,10.2-2
			c3.5,0,6.6,0.5,9.3,1.6c2.7,1,4.9,2.5,6.5,4.3c1.6,1.8,2.9,3.9,3.7,6.3c0.8,2.4,1.2,4.9,1.2,7.6c0,2.4-0.2,4.5-0.7,6.3h-42.8
			c0.1,3.1,0.6,6,1.5,8.6c0.9,2.6,2.3,5,4.2,7.1c1.8,2.1,4.3,3.7,7.3,4.9c3,1.2,6.5,1.8,10.5,1.8c6.5,0,12.4-2.1,17.9-6.4l1.2,1.6
			c-5.4,4.3-11.8,6.5-19.1,6.5c-4.3,0-8.1-0.7-11.4-2c-3.3-1.3-6-3.1-7.9-5.5c-2-2.3-3.4-4.9-4.4-7.9
			C713.7,836.5,713.2,833.3,713.2,829.9z M714.9,828.9h41.3c0.2-1.8,0.4-3.3,0.4-4.4c0-2.4-0.4-4.7-1.1-6.8c-0.7-2.1-1.8-4-3.3-5.7
			c-1.5-1.7-3.5-3-5.9-4s-5.3-1.5-8.5-1.5c-4.5,0-8.5,1-12,3.1c-3.5,2.1-6.1,4.8-7.9,8.2C715.9,821.1,715,824.9,714.9,828.9z"/>
		<path d="M768.4,807.8V806h10.2v-12.1h1.8V806h21.3v1.8h-21.4v33.5c0,3.6,0.9,6.4,2.7,8.3c1.8,2,4.4,2.9,7.8,2.9
			c2,0,4.2-0.4,6.5-1.1c2.3-0.8,4.3-1.7,5.9-2.9l1,1.6c-4.2,2.8-8.7,4.2-13.5,4.2c-3.9,0-6.9-1.1-9-3.4c-2.1-2.2-3.2-5.4-3.2-9.6
			v-33.6H768.4z"/>
		<path d="M815.5,792.4c0-1.6,0.7-2.4,2-2.4c1.2,0,1.8,0.8,1.8,2.4c0,1.6-0.6,2.4-1.8,2.4C816.2,794.7,815.5,793.9,815.5,792.4z
			 M816.5,853.5V806h1.8v47.5H816.5z"/>
		<path d="M838.1,853.5V806h1.8v10.9c1.7-3.7,4.3-6.6,7.7-8.7c3.4-2.1,7.4-3.1,12-3.1c6.2,0,11,1.9,14.4,5.8s5,9,5,15.2v27.3h-1.8
			v-27.3c0-5.6-1.5-10.3-4.5-13.8s-7.4-5.4-13.1-5.4c-5.1,0-9.4,1.4-12.9,4.1s-5.8,6.2-6.9,10.5v32H838.1z"/>
		<path d="M895,828.1c0-3.1,0.6-6.1,1.7-8.9c1.1-2.8,2.7-5.2,4.7-7.3s4.5-3.7,7.5-4.9s6.3-1.8,9.8-1.8c3.4,0,6.6,0.7,9.6,2.1
			c3,1.4,5.6,3.2,7.7,5.3V806h1.8v44.4c0,3.3-0.5,6.3-1.6,9c-1.1,2.7-2.5,4.9-4.3,6.7c-1.8,1.7-3.9,3.1-6.3,4.1s-4.9,1.4-7.6,1.4
			c-1.1,0-2.2-0.1-3.2-0.2c-1.1-0.1-2-0.3-2.8-0.4c-0.8-0.1-1.7-0.4-2.6-0.7c-0.9-0.3-1.6-0.6-2.2-0.8c-0.5-0.2-1.2-0.5-2-0.9
			c-0.8-0.4-1.3-0.7-1.6-0.8c-0.3-0.1-0.7-0.4-1.4-0.9c-0.7-0.4-1-0.7-1.1-0.7l0.7-1.9c1,0.7,1.9,1.2,2.7,1.7c0.8,0.5,1.9,1,3.3,1.7
			c1.4,0.7,3,1.2,4.7,1.5c1.7,0.4,3.5,0.5,5.4,0.5c5,0,9.2-1.7,12.7-5.2c3.5-3.5,5.2-8.1,5.2-14v-7c-2.1,2.1-4.7,3.8-7.7,5.2
			c-3,1.4-6.2,2.1-9.6,2.1c-3.5,0-6.8-0.6-9.8-1.8s-5.5-2.8-7.5-4.9c-2-2.1-3.6-4.5-4.7-7.2C895.6,834.1,895,831.2,895,828.1z
			 M896.8,828.1c0,2.8,0.5,5.5,1.6,8.1c1,2.5,2.5,4.8,4.4,6.7c1.9,1.9,4.2,3.4,7,4.5c2.8,1.1,5.8,1.7,9,1.7c3.5,0,6.8-0.8,9.9-2.3
			c3.1-1.5,5.6-3.4,7.5-5.5V815c-1.9-2.2-4.4-4.1-7.5-5.7c-3.1-1.6-6.3-2.4-9.9-2.4c-6.5,0-11.8,2-15.9,6.1
			C898.9,817.2,896.8,822.2,896.8,828.1z"/>
	</g>
</g>
<line class="st1" x1="67.9" y1="761.2" x2="1606.9" y2="772.9"/>
<g>
	<path d="M212.4-681.4c0,41.7-27.7,68-71.8,68c-44.4,0-72.7-26.4-72.7-68v-91.5H108v91.4c0,21.4,13.7,34.5,32.9,34.5
		c18.9,0,31.8-13.1,31.8-34.5v-91.4h39.9v91.5H212.4z"/>
	<path d="M526.5-772.9c49.5,0,83.8,32,83.8,78.8c0,46.6-34.7,78.8-85.4,78.8h-66.1v-157.6H526.5z M498.8-647.2h28.6
		c24.5,0,42.1-18.9,42.1-46.6c0-27.9-18.5-47.1-43.9-47.1h-26.8V-647.2z"/>
	<path d="M745.7-665.5h-85.4c3.8,14.4,14.2,22.5,28.6,22.5c10.6,0,20.9-4.3,29.1-12.4l20.5,20c-12.4,13.5-30.6,21.4-52.9,21.4
		c-39.6,0-64.4-24.8-64.4-61.7c0-37.6,25.7-62.4,63.3-62.4C727.2-738,748.4-709.8,745.7-665.5z M708.3-686.4
		c0-14.9-9.5-24.5-23.4-24.5c-13.5,0-22.7,9.9-25.2,24.5H708.3z"/>
	<path d="M791.8-615.2l-45.7-121.4h40.1l26.1,85.8l26.4-85.8h38.7l-45.7,121.4H791.8z"/>
	<path d="M1001.7-665.5h-85.4c3.8,14.4,14.2,22.5,28.6,22.5c10.6,0,20.9-4.3,29.1-12.4l20.5,20c-12.4,13.5-30.6,21.4-52.9,21.4
		c-39.6,0-64.4-24.8-64.4-61.7c0-37.6,25.7-62.4,63.3-62.4C983.3-738,1004.4-709.8,1001.7-665.5z M964.4-686.4
		c0-14.9-9.5-24.5-23.4-24.5c-13.5,0-22.7,9.9-25.2,24.5H964.4z"/>
	<path d="M1024-615.2v-167.1h39v167.1H1024L1024-615.2z"/>
	<path d="M1217.7-676c0,37.4-26.6,62.2-66.2,62.2c-39.9,0-66.4-24.8-66.4-62.2c0-37.4,26.6-61.9,66.4-61.9
		C1191.1-738,1217.7-713.4,1217.7-676z M1124.3-675.6c0,18.9,11,31.5,27.3,31.5c16,0,27-12.6,27-31.5c0-18.7-11-31.5-27-31.5
		C1135.3-707.1,1124.3-694.3,1124.3-675.6z"/>
	<path d="M1372-675.4c0,36.9-22.1,61.5-56.1,61.5c-15.8,0-28.6-6.3-37.2-17.6v59.9h-39v-165h39v16c8.6-11,20.9-17.3,36.3-17.3
		C1349.2-738,1372-713,1372-675.4z M1332.8-676.5c0-18.5-11-31.5-27.3-31.5c-15.8,0-26.8,13.1-26.8,31.5c0,18.9,11,31.8,26.8,31.8
		C1321.8-644.7,1332.8-657.8,1332.8-676.5z"/>
	<path d="M1507.3-665.5h-85.4c3.8,14.4,14.2,22.5,28.6,22.5c10.6,0,20.9-4.3,29.1-12.4l20.5,20c-12.4,13.5-30.6,21.4-52.9,21.4
		c-39.6,0-64.4-24.8-64.4-61.7c0-37.6,25.7-62.4,63.3-62.4C1488.9-738,1510-709.8,1507.3-665.5z M1470-686.4
		c0-14.9-9.5-24.5-23.4-24.5c-13.5,0-22.7,9.9-25.2,24.5H1470z"/>
	<path d="M1567.5-716.1c8.3-14.2,22.1-22.1,39.4-22.3v35.1c-22.5-2-37.4,8.6-39.4,25.7v62.4h-39v-121.4h39V-716.1z"/>
	<g id="x-layer_1_">
		<path d="M389.2-615.2h-48l-34-50.2l-57,85.4h-46.6l79.3-115.8l-52.7-77h46.6l30.4,45.9l54.4-79.2h47.1l-76,108.4L389.2-615.2z"/>
	</g>
</g>
<g>
	<text transform="matrix(1 0 0 1 67.9201 -829.6775)" style="font-family:'PlutoSansBold'; font-size:90.8257px;">Robert Vargas</text>
</g>
<g>
	<text transform="matrix(1 0 0 1 56.9201 -465.2672)" style="font-family:'PlutoSansThin'; font-size:90.8257px;">Design &amp; Marketing</text>
</g>
<line class="st1" x1="67.9" y1="-557.6" x2="1606.9" y2="-545.9"/>
</svg>
